<?xml version="1.0" standalone="no"?>
<!DOCTYPE svg PUBLIC "-//W3C//DTD SVG 20010904//EN"
 "http://www.w3.org/TR/2001/REC-SVG-20010904/DTD/svg10.dtd">
<svg version="1.0" xmlns="http://www.w3.org/2000/svg"
 width="500.000000pt" height="500.000000pt" viewBox="0 0 500.000000 500.000000"
 preserveAspectRatio="xMidYMid meet">

<g transform="translate(0.000000,500.000000) scale(0.100000,-0.100000)"
fill="#000000" stroke="none">
<path d="M2250 4056 c-347 -54 -676 -221 -925 -471 -259 -258 -418 -572 -476
-940 -17 -104 -17 -389 0 -485 64 -372 210 -668 450 -913 266 -273 591 -440
966 -498 106 -16 369 -16 475 0 192 30 358 83 530 172 159 82 284 174 415 304
318 317 486 726 486 1179 0 252 -44 457 -148 689 -130 291 -376 573 -638 729
-169 101 -399 192 -565 223 -115 22 -455 29 -570 11z m285 -111 c19 -18 25
-35 25 -65 0 -59 -33 -90 -98 -90 -67 0 -92 24 -92 90 0 41 4 52 26 69 39 31
107 29 139 -4z m260 -35 c19 -42 35 -44 35 -4 0 17 6 24 19 24 47 0 49 -5 32
-90 -9 -43 -19 -82 -23 -85 -16 -17 -55 6 -72 42 l-19 38 -9 -33 c-8 -31 -12
-33 -36 -27 -15 4 -28 8 -29 9 -2 1 4 39 13 84 16 78 18 82 44 82 22 0 30 -8
45 -40z m-596 4 c19 -13 22 -23 18 -53 -3 -27 1 -42 17 -59 17 -20 18 -24 6
-32 -24 -16 -56 -11 -75 10 -26 29 -38 25 -32 -9 6 -27 3 -30 -24 -36 -17 -4
-33 -5 -36 -2 -8 9 -44 159 -39 164 7 7 98 31 121 32 11 1 31 -6 44 -15z m936
-74 c7 0 27 -12 44 -26 23 -19 31 -34 31 -57 0 -44 -33 -95 -67 -103 -37 -10
-115 32 -127 67 -17 50 49 140 92 124 8 -3 20 -5 27 -5z m-1254 -32 c8 -14 8
-23 2 -25 -6 -2 -18 -9 -27 -16 -16 -12 -15 -16 10 -61 l27 -49 -22 -19 c-13
-10 -26 -18 -30 -18 -4 0 -20 24 -36 54 -29 54 -29 54 -57 40 -25 -13 -28 -12
-38 5 -5 11 -10 22 -10 25 0 8 143 86 157 86 7 0 18 -10 24 -22z m1536 -171
c-5 -33 -3 -38 11 -31 39 16 63 16 82 -1 19 -17 18 -19 -27 -79 -25 -33 -49
-65 -53 -69 -8 -10 -50 13 -50 26 0 5 10 23 22 39 19 28 19 29 2 21 -26 -14
-44 -6 -44 20 -1 21 -2 20 -24 -6 l-23 -28 -23 19 -24 20 53 70 c54 70 54 70
78 54 22 -13 24 -21 20 -55z m-724 18 c221 -39 398 -113 564 -237 l51 -39 -16
-39 c-10 -22 -19 -40 -22 -40 -15 1 -63 54 -69 77 -4 15 -14 31 -23 37 -40 25
-72 -58 -44 -112 l15 -30 -37 -6 c-79 -14 -91 -18 -96 -32 -10 -25 36 -43 139
-55 75 -8 116 -19 162 -41 44 -22 70 -29 88 -24 45 12 43 36 -8 80 -46 40 -47
43 -47 96 l1 55 75 -80 c295 -312 410 -757 303 -1175 -106 -420 -430 -762
-844 -893 -247 -78 -548 -74 -795 10 -177 60 -344 165 -480 303 -163 164 -274
357 -333 578 -29 111 -31 126 -31 312 -1 168 2 207 21 280 67 262 174 451 359
633 180 175 414 294 677 342 100 18 285 18 390 0z m-1118 -35 c9 -14 -13 -40
-42 -51 -13 -5 -23 -13 -23 -18 0 -5 17 0 38 11 44 24 87 19 97 -12 14 -43
-56 -120 -108 -120 -52 0 -39 35 21 60 12 5 22 14 22 20 0 6 -19 1 -41 -11
-34 -17 -47 -19 -65 -10 -33 14 -33 69 -1 98 44 40 89 54 102 33z m2105 -216
c-14 -35 -14 -34 20 -28 24 5 34 2 49 -17 11 -13 17 -27 15 -30 -2 -4 -30 -10
-61 -14 -37 -4 -66 -14 -80 -28 l-23 -20 -25 23 -25 24 25 25 c13 15 31 46 40
71 8 25 18 52 21 60 4 12 11 9 29 -13 20 -22 23 -32 15 -53z m-379 -166 c83
-69 106 -94 92 -96 -11 -2 -44 10 -74 26 -42 22 -76 31 -139 36 -45 4 -92 11
-104 15 -17 7 -13 10 24 15 114 18 116 19 75 60 -15 15 -25 37 -25 54 0 42 13
48 27 13 8 -18 58 -68 124 -123z m-1867 56 c-9 -13 -25 -24 -35 -24 -20 0 -51
-38 -42 -53 7 -12 -17 -57 -31 -57 -6 0 -33 34 -59 75 l-49 74 27 35 26 34 89
-30 89 -30 -15 -24z m1886 -6 c0 -23 -3 -29 -11 -21 -6 6 -8 20 -4 32 9 30 15
26 15 -11z m-2172 -219 c-6 -17 -17 -33 -24 -36 -24 -9 -16 -43 13 -54 34 -13
53 -5 53 23 0 16 -3 19 -11 11 -12 -12 -39 -7 -39 7 0 4 7 24 15 44 l15 36 31
-15 c16 -9 34 -27 39 -40 19 -51 -32 -145 -80 -145 -36 0 -99 38 -106 65 -12
47 29 122 76 137 25 8 29 -1 18 -33z m2879 -286 c12 -48 19 -91 17 -95 -3 -5
-16 -8 -30 -8 -17 0 -24 5 -24 19 0 30 -16 34 -72 21 -54 -13 -68 -7 -68 33 0
19 2 20 69 37 41 11 43 13 38 40 -6 29 1 38 33 39 12 1 22 -22 37 -86z m43
-343 c0 -75 -2 -81 -26 -96 -22 -15 -31 -16 -60 -5 -24 9 -39 9 -53 2 -27 -15
-28 -15 -33 20 -4 27 0 34 23 48 36 20 36 29 2 33 -23 2 -29 8 -31 35 l-3 32
58 4 c32 2 73 4 91 5 l32 2 0 -80z m-3092 -58 c2 -28 8 -52 13 -52 6 0 8 17 3
45 -6 44 -5 45 20 45 24 0 26 -4 26 -39 0 -22 5 -43 10 -46 6 -4 10 15 10 49
0 53 1 56 25 56 25 0 25 -1 25 -84 l0 -84 -75 -7 c-105 -10 -105 -10 -105 83
0 82 4 95 30 90 11 -2 16 -18 18 -56z m2945 -188 c9 -3 13 -13 9 -26 -6 -23
12 -38 44 -38 15 0 24 8 28 24 5 19 11 22 32 18 20 -4 24 -9 20 -26 -2 -11
-10 -49 -17 -83 -10 -56 -14 -63 -35 -63 -20 0 -24 5 -24 30 0 17 -5 30 -12
30 -7 0 -23 3 -35 6 -17 5 -22 1 -25 -17 -3 -25 -24 -35 -46 -21 -10 7 -9 25
5 90 17 80 23 89 56 76z m-2783 -90 c12 -30 6 -44 -19 -44 -24 0 -30 -8 -24
-31 4 -15 13 -19 36 -17 26 3 31 -1 38 -24 4 -16 4 -30 0 -32 -3 -2 -41 -13
-84 -24 l-78 -20 -10 25 c-13 35 -12 41 14 45 16 2 22 10 22 28 0 22 -4 25
-31 22 -27 -3 -32 1 -38 24 -4 14 -5 28 -2 31 5 5 134 41 154 42 7 1 17 -11
22 -25z m2819 -289 c7 -8 -42 -107 -63 -127 -44 -40 -103 -6 -93 54 3 18 8 40
12 50 4 11 0 18 -14 23 -24 7 -25 13 -11 49 l9 26 78 -35 c42 -20 79 -38 82
-40z m-2679 -85 c0 -5 -22 -21 -50 -36 -51 -28 -57 -37 -40 -64 10 -16 -5 -40
-25 -40 -13 0 -95 138 -95 159 0 5 10 13 22 16 15 6 26 1 38 -15 l17 -22 49
25 49 26 18 -21 c9 -11 17 -24 17 -28z"/>
<path d="M2447 3914 c-4 -4 -7 -23 -7 -41 0 -30 3 -34 23 -31 18 2 22 9 22 38
0 33 -20 51 -38 34z"/>
<path d="M2123 3873 c-20 -8 -15 -23 7 -23 11 0 20 7 20 15 0 15 -6 17 -27 8z"/>
<path d="M3090 3761 c-22 -53 18 -73 44 -22 11 21 12 31 3 40 -18 18 -34 13
-47 -18z"/>
<path d="M2345 3464 c-422 -67 -753 -386 -872 -842 -48 -185 -43 -455 13 -665
29 -107 72 -227 83 -227 19 0 17 16 -11 87 -54 138 -79 271 -85 449 -9 243 22
406 111 584 66 132 119 206 230 315 109 106 166 146 296 202 135 58 246 76
440 70 168 -6 249 -20 384 -66 68 -24 76 -25 76 -10 0 15 -60 38 -190 71 -100
26 -136 30 -280 33 -91 2 -178 1 -195 -1z"/>
<path d="M2438 3239 c-103 -11 -245 -59 -343 -117 -95 -56 -254 -210 -303
-294 -170 -289 -177 -592 -20 -891 53 -99 183 -237 275 -290 142 -82 293 -119
483 -119 157 0 279 26 404 86 302 146 471 476 435 852 -29 308 -175 536 -430
673 -90 48 -214 88 -300 96 -35 3 -77 7 -94 9 -16 2 -65 0 -107 -5z m277 -45
c243 -50 459 -224 558 -449 77 -177 94 -420 42 -620 -22 -83 -83 -208 -140
-283 -147 -195 -412 -304 -700 -289 -138 8 -244 35 -365 94 -81 39 -108 59
-185 137 -103 104 -167 213 -207 351 -30 106 -33 343 -5 445 63 232 233 437
453 548 173 87 344 107 549 66z"/>
<path d="M2411 3109 c-94 -18 -195 -59 -288 -118 -24 -14 -43 -30 -43 -35 0
-6 10 -20 21 -33 l22 -22 -34 9 c-136 39 -186 -27 -136 -182 30 -93 74 -164
133 -216 52 -46 100 -62 189 -62 41 0 80 -6 101 -16 51 -24 163 -150 281 -315
182 -256 267 -343 348 -356 27 -4 38 0 60 22 35 34 30 76 -15 139 -31 43 -31
44 -15 70 22 33 15 41 -25 27 -35 -12 -54 -5 -85 29 l-20 22 30 21 c55 39 105
94 105 116 0 30 16 58 60 107 77 85 75 156 -10 239 -68 67 -89 142 -45 159 31
11 50 -8 75 -77 20 -56 70 -42 70 20 0 76 -120 245 -228 321 -84 59 -195 109
-277 127 -76 16 -204 18 -274 4z m99 -98 c0 -5 -13 -13 -28 -19 -32 -11 -62
-38 -62 -56 0 -6 18 -31 40 -54 22 -22 40 -47 40 -55 0 -7 -13 -26 -30 -42
-41 -40 -38 -66 12 -109 23 -20 45 -36 49 -36 5 0 33 -9 64 -21 80 -30 76 -50
-33 -177 -35 -42 -39 -51 -25 -56 11 -5 28 5 52 28 52 49 110 86 137 86 17 0
31 -12 50 -41 56 -90 68 -176 36 -262 l-18 -47 -75 52 c-149 103 -270 213
-300 270 -14 27 -19 58 -19 112 0 117 -34 180 -133 246 -32 22 -52 40 -44 40
35 0 65 24 96 76 23 38 40 56 59 60 15 3 32 7 37 9 22 8 95 4 95 -4z"/>
<path d="M1854 2386 c-24 -11 -33 -22 -36 -47 -6 -39 7 -147 24 -199 13 -43
64 -146 90 -182 18 -26 18 -27 -2 -60 -27 -44 -26 -89 3 -116 30 -28 62 -28
115 3 l44 25 59 -35 c68 -40 193 -96 217 -97 9 -1 41 13 70 31 40 25 52 38 52
57 0 41 -44 72 -111 80 -68 8 -100 35 -120 103 l-11 38 92 129 c51 71 104 141
118 157 24 25 25 28 9 44 -15 16 -20 14 -64 -23 -26 -22 -86 -66 -132 -98
l-85 -59 -15 23 c-9 12 -37 45 -62 74 -26 28 -57 71 -69 96 -13 25 -30 50 -39
57 -21 16 -108 16 -147 -1z"/>
<path d="M3144 2220 c-14 -6 -23 -21 -27 -47 -4 -21 -9 -50 -13 -65 -5 -24 -3
-28 15 -28 12 0 33 7 47 16 23 15 26 15 43 0 36 -32 51 -15 51 58 0 66 -48 94
-116 66z"/>
<path d="M1605 1616 c-20 -15 -20 -15 2 -37 28 -29 55 -19 51 18 -4 32 -25 40
-53 19z"/>
<path d="M1301 3289 c5 -11 14 -17 20 -14 15 10 10 22 -11 28 -17 4 -18 2 -9
-14z"/>
<path d="M4002 2426 c1 -10 8 -17 13 -17 15 1 12 24 -3 29 -9 3 -13 -2 -10
-12z"/>
<path d="M3856 1764 c-8 -22 -8 -24 8 -24 15 0 28 24 19 34 -11 10 -21 7 -27
-10z"/>
</g>
</svg>
